<?xml version="1.0" encoding="UTF-8" standalone="no"?>
<!-- Created with Inkscape (http://www.inkscape.org/) -->

<svg
   xmlns:dc="http://purl.org/dc/elements/1.1/"
   xmlns:cc="http://creativecommons.org/ns#"
   xmlns:rdf="http://www.w3.org/1999/02/22-rdf-syntax-ns#"
   xmlns:svg="http://www.w3.org/2000/svg"
   xmlns="http://www.w3.org/2000/svg"
   xmlns:sodipodi="http://sodipodi.sourceforge.net/DTD/sodipodi-0.dtd"
   xmlns:inkscape="http://www.inkscape.org/namespaces/inkscape"
   width="744.09448819"
   height="1052.3622047"
   id="svg3650"
   version="1.1"
   inkscape:version="0.47 r22583"
   sodipodi:docname="central-3.svg">
  <defs
     id="defs3652">
    <marker
       inkscape:stockid="Arrow1Mend"
       orient="auto"
       refY="0.0"
       refX="0.0"
       id="Arrow1Mend"
       style="overflow:visible;">
      <path
         id="path4208"
         d="M 0.0,0.0 L 5.0,-5.0 L -12.5,0.0 L 5.0,5.0 L 0.0,0.0 z "
         style="fill-rule:evenodd;stroke:#000000;stroke-width:1.0pt;marker-start:none;"
         transform="scale(0.4) rotate(180) translate(10,0)" />
    </marker>
    <marker
       inkscape:stockid="Arrow2Lend"
       orient="auto"
       refY="0.0"
       refX="0.0"
       id="Arrow2Lend"
       style="overflow:visible;">
      <path
         id="path4220"
         style="font-size:12.0;fill-rule:evenodd;stroke-width:0.62500000;stroke-linejoin:round;"
         d="M 8.7185878,4.0337352 L -2.2072895,0.016013256 L 8.7185884,-4.0017078 C 6.9730900,-1.6296469 6.9831476,1.6157441 8.7185878,4.0337352 z "
         transform="scale(1.1) rotate(180) translate(1,0)" />
    </marker>
    <marker
       inkscape:stockid="Arrow1Lend"
       orient="auto"
       refY="0.0"
       refX="0.0"
       id="Arrow1Lend"
       style="overflow:visible;">
      <path
         id="path4202"
         d="M 0.0,0.0 L 5.0,-5.0 L -12.5,0.0 L 5.0,5.0 L 0.0,0.0 z "
         style="fill-rule:evenodd;stroke:#000000;stroke-width:1.0pt;marker-start:none;"
         transform="scale(0.8) rotate(180) translate(12.5,0)" />
    </marker>
    <inkscape:perspective
       sodipodi:type="inkscape:persp3d"
       inkscape:vp_x="0 : 526.18109 : 1"
       inkscape:vp_y="0 : 1000 : 0"
       inkscape:vp_z="744.09448 : 526.18109 : 1"
       inkscape:persp3d-origin="372.04724 : 350.78739 : 1"
       id="perspective3658" />
  </defs>
  <sodipodi:namedview
     id="base"
     pagecolor="#ffffff"
     bordercolor="#666666"
     borderopacity="1.0"
     inkscape:pageopacity="0.0"
     inkscape:pageshadow="2"
     inkscape:zoom="0.49497475"
     inkscape:cx="325.41736"
     inkscape:cy="536.73676"
     inkscape:document-units="px"
     inkscape:current-layer="layer1"
     showgrid="false"
     inkscape:window-width="1072"
     inkscape:window-height="682"
     inkscape:window-x="163"
     inkscape:window-y="169"
     inkscape:window-maximized="0" />
  <metadata
     id="metadata3655">
    <rdf:RDF>
      <cc:Work
         rdf:about="">
        <dc:format>image/svg+xml</dc:format>
        <dc:type
           rdf:resource="http://purl.org/dc/dcmitype/StillImage" />
        <dc:title></dc:title>
      </cc:Work>
    </rdf:RDF>
  </metadata>
  <g
     inkscape:label="Layer 1"
     inkscape:groupmode="layer"
     id="layer1">
    <path
       sodipodi:type="arc"
       style="fill:#ff5555;stroke:#000000;stroke-width:10;stroke-miterlimit:4;stroke-opacity:1;stroke-dasharray:none"
       id="path3662"
       sodipodi:cx="297.14285"
       sodipodi:cy="400.93362"
       sodipodi:rx="134.28572"
       sodipodi:ry="134.28572"
       d="m 431.42857,400.93362 a 134.28572,134.28572 0 1 1 -268.57144,0 134.28572,134.28572 0 1 1 268.57144,0 z"
       transform="translate(42.857143,-137.14286)" />
    <text
       xml:space="preserve"
       style="font-size:40px;font-style:normal;font-variant:normal;font-weight:normal;font-stretch:normal;text-align:center;text-anchor:middle;fill:#000000;fill-opacity:1;stroke:none;font-family:Sans;-inkscape-font-specification:Sans"
       x="337.14285"
       y="246.64795"
       id="text3664"><tspan
         sodipodi:role="line"
         id="tspan3666"
         x="337.14285"
         y="246.64795">central</tspan><tspan
         sodipodi:role="line"
         x="337.14285"
         y="296.64795"
         id="tspan3668">repository</tspan></text>
    <path
       d="m 231.42857,669.50507 a 65.714287,65.714287 0 1 1 -131.428578,0 65.714287,65.714287 0 1 1 131.428578,0 z"
       sodipodi:ry="65.714287"
       sodipodi:rx="65.714287"
       sodipodi:cy="669.50507"
       sodipodi:cx="165.71428"
       id="path4188"
       style="fill:#ff5555;stroke:#000000;stroke-width:10;stroke-miterlimit:4;stroke-opacity:1;stroke-dasharray:none"
       sodipodi:type="arc"
       transform="translate(-48.571429,-71.428571)" />
    <path
       sodipodi:type="arc"
       style="fill:#ff5555;stroke:#000000;stroke-width:10;stroke-miterlimit:4;stroke-opacity:1;stroke-dasharray:none"
       id="path4190"
       sodipodi:cx="165.71428"
       sodipodi:cy="669.50507"
       sodipodi:rx="65.714287"
       sodipodi:ry="65.714287"
       d="m 231.42857,669.50507 a 65.714287,65.714287 0 1 1 -131.428578,0 65.714287,65.714287 0 1 1 131.428578,0 z"
       inkscape:transform-center-x="260"
       inkscape:transform-center-y="122.85714"
       transform="translate(457.14286,-80)" />
    <path
       sodipodi:type="arc"
       style="fill:#ff5555;stroke:#000000;stroke-width:10;stroke-miterlimit:4;stroke-opacity:1;stroke-dasharray:none"
       id="path4192"
       sodipodi:cx="165.71428"
       sodipodi:cy="669.50507"
       sodipodi:rx="65.714287"
       sodipodi:ry="65.714287"
       d="m 231.42857,669.50507 a 65.714287,65.714287 0 1 1 -131.428578,0 65.714287,65.714287 0 1 1 131.428578,0 z"
       transform="translate(191.42857,77.14286)" />
    <path
       id="path5212"
       d="m 357.14286,412.36218 -5.71428,220.00001"
       style="fill:#ff5555;stroke:#000000;stroke-width:15;stroke-linecap:butt;stroke-linejoin:miter;stroke-miterlimit:4;stroke-opacity:1;stroke-dasharray:none;marker-end:url(#Arrow1Mend)"
       sodipodi:nodetypes="cc" />
    <path
       sodipodi:nodetypes="cc"
       style="fill:#ff5555;stroke:#000000;stroke-width:15;stroke-linecap:butt;stroke-linejoin:miter;stroke-miterlimit:4;stroke-opacity:1;stroke-dasharray:none;marker-end:url(#Arrow1Mend)"
       d="m 465.71429,363.79075 85.71429,131.42858"
       id="path5214" />
    <g
       id="g5429">
      <path
         transform="translate(901.05606,321.22851)"
         d="m -509.11686,401.82394 a 10.101525,10.101525 0 1 1 -20.20305,0 10.101525,10.101525 0 1 1 20.20305,0 z"
         sodipodi:ry="10.101525"
         sodipodi:rx="10.101525"
         sodipodi:cy="401.82394"
         sodipodi:cx="-519.21838"
         id="path5423"
         style="fill:#000000;stroke:#000000;stroke-width:15;stroke-miterlimit:4;stroke-opacity:1;stroke-dasharray:none"
         sodipodi:type="arc" />
      <path
         transform="translate(848.52813,321.22851)"
         sodipodi:type="arc"
         style="fill:#000000;stroke:#000000;stroke-width:15;stroke-miterlimit:4;stroke-opacity:1;stroke-dasharray:none"
         id="path5425"
         sodipodi:cx="-519.21838"
         sodipodi:cy="401.82394"
         sodipodi:rx="10.101525"
         sodipodi:ry="10.101525"
         d="m -509.11686,401.82394 a 10.101525,10.101525 0 1 1 -20.20305,0 10.101525,10.101525 0 1 1 20.20305,0 z" />
      <path
         transform="matrix(-0.25208834,0,0,-0.43718629,236.74533,954.8158)"
         sodipodi:open="true"
         sodipodi:end="3.0467513"
         sodipodi:start="0"
         d="m -349.51276,384.65137 a 123.23861,57.578693 0 0 1 -245.92338,5.45266"
         sodipodi:ry="57.578693"
         sodipodi:rx="123.23861"
         sodipodi:cy="384.65137"
         sodipodi:cx="-472.75137"
         id="path5427"
         style="fill:none;stroke:#000000;stroke-width:15;stroke-miterlimit:4;stroke-opacity:1;stroke-dasharray:none"
         sodipodi:type="arc" />
    </g>
    <g
       id="g5434"
       transform="translate(268.72088,-157.5838)">
      <path
         sodipodi:type="arc"
         style="fill:#000000;stroke:#000000;stroke-width:15;stroke-miterlimit:4;stroke-opacity:1;stroke-dasharray:none"
         id="path5436"
         sodipodi:cx="-519.21838"
         sodipodi:cy="401.82394"
         sodipodi:rx="10.101525"
         sodipodi:ry="10.101525"
         d="m -509.11686,401.82394 c 0,5.57892 -4.52261,10.10153 -10.10152,10.10153 -5.57892,0 -10.10153,-4.52261 -10.10153,-10.10153 0,-5.57891 4.52261,-10.10152 10.10153,-10.10152 5.57891,0 10.10152,4.52261 10.10152,10.10152 z"
         transform="translate(901.05606,321.22851)" />
      <path
         d="m -509.11686,401.82394 c 0,5.57892 -4.52261,10.10153 -10.10152,10.10153 -5.57892,0 -10.10153,-4.52261 -10.10153,-10.10153 0,-5.57891 4.52261,-10.10152 10.10153,-10.10152 5.57891,0 10.10152,4.52261 10.10152,10.10152 z"
         sodipodi:ry="10.101525"
         sodipodi:rx="10.101525"
         sodipodi:cy="401.82394"
         sodipodi:cx="-519.21838"
         id="path5438"
         style="fill:#000000;stroke:#000000;stroke-width:15;stroke-miterlimit:4;stroke-opacity:1;stroke-dasharray:none"
         sodipodi:type="arc"
         transform="translate(848.52813,321.22851)" />
      <path
         sodipodi:type="arc"
         style="fill:none;stroke:#000000;stroke-width:15;stroke-miterlimit:4;stroke-opacity:1;stroke-dasharray:none"
         id="path5440"
         sodipodi:cx="-472.75137"
         sodipodi:cy="384.65137"
         sodipodi:rx="123.23861"
         sodipodi:ry="57.578693"
         d="m -349.51276,384.65137 c 0,31.79983 -55.17581,57.57869 -123.23861,57.57869 -63.54187,0 -116.6674,-22.57186 -122.68477,-52.12603"
         sodipodi:start="0"
         sodipodi:end="3.0467513"
         sodipodi:open="true"
         transform="matrix(-0.25208834,0,0,-0.43718629,236.74533,954.8158)" />
    </g>
    <text
       xml:space="preserve"
       style="font-size:40px;font-style:normal;font-variant:normal;font-weight:normal;font-stretch:normal;fill:#000000;fill-opacity:1;stroke:none;font-family:Sans;-inkscape-font-specification:Sans"
       x="375.77676"
       y="662.4433"
       id="text5442"><tspan
         sodipodi:role="line"
         id="tspan5444"
         x="375.77676"
         y="662.4433">#$^*#!</tspan></text>
    <path
       style="fill:none;stroke:#000000;stroke-width:1px;stroke-linecap:butt;stroke-linejoin:miter;stroke-opacity:1"
       d="m 432.32498,717.03215 32.32488,-46.46702 0,-4.04061"
       id="path5446" />
  </g>
</svg>
