<?xml version="1.0" encoding="UTF-8" standalone="no"?>
<!-- Created with Inkscape (http://www.inkscape.org/) -->

<svg
   xmlns:dc="http://purl.org/dc/elements/1.1/"
   xmlns:cc="http://creativecommons.org/ns#"
   xmlns:rdf="http://www.w3.org/1999/02/22-rdf-syntax-ns#"
   xmlns:svg="http://www.w3.org/2000/svg"
   xmlns="http://www.w3.org/2000/svg"
   xmlns:xlink="http://www.w3.org/1999/xlink"
   xmlns:sodipodi="http://sodipodi.sourceforge.net/DTD/sodipodi-0.dtd"
   xmlns:inkscape="http://www.inkscape.org/namespaces/inkscape"
   width="744.09448819"
   height="1052.3622047"
   id="svg2"
   version="1.1"
   inkscape:version="0.47 r22583"
   inkscape:export-filename="/home/lars/projects/tutorials/version-control/kaboom.png"
   inkscape:export-xdpi="90"
   inkscape:export-ydpi="90"
   sodipodi:docname="kaboom.svg">
  <defs
     id="defs4">
    <inkscape:perspective
       sodipodi:type="inkscape:persp3d"
       inkscape:vp_x="0 : 526.18109 : 1"
       inkscape:vp_y="0 : 1000 : 0"
       inkscape:vp_z="744.09448 : 526.18109 : 1"
       inkscape:persp3d-origin="372.04724 : 350.78739 : 1"
       id="perspective10" />
  </defs>
  <sodipodi:namedview
     id="base"
     pagecolor="#ffffff"
     bordercolor="#666666"
     borderopacity="1.0"
     inkscape:pageopacity="0.0"
     inkscape:pageshadow="2"
     inkscape:zoom="0.35"
     inkscape:cx="379.28571"
     inkscape:cy="508.57143"
     inkscape:document-units="px"
     inkscape:current-layer="layer1"
     showgrid="false"
     inkscape:window-width="848"
     inkscape:window-height="743"
     inkscape:window-x="374"
     inkscape:window-y="112"
     inkscape:window-maximized="0" />
  <metadata
     id="metadata7">
    <rdf:RDF>
      <cc:Work
         rdf:about="">
        <dc:format>image/svg+xml</dc:format>
        <dc:type
           rdf:resource="http://purl.org/dc/dcmitype/StillImage" />
        <dc:title></dc:title>
      </cc:Work>
    </rdf:RDF>
  </metadata>
  <g
     inkscape:label="Layer 1"
     inkscape:groupmode="layer"
     id="layer1">
    <g
       id="g2843"
       transform="matrix(0.84530015,0,0,0.75272491,38.359797,73.561868)"
       inkscape:export-filename="/home/lars/projects/tutorials/version-control/kaboom.png"
       inkscape:export-xdpi="90"
       inkscape:export-ydpi="90">
      <path
         id="path2837"
         d="M 348.57143,295.21933 162.85714,46.647897 197.14286,332.36218 28.571429,320.93361 180,452.36218 51.428571,912.36218 245.71429,580.93361 340,818.07647 l 45.71429,-185.71429 120,288.57143 20,-297.14286 157.14285,111.42858 -68.57143,-177.14286 157.14286,0 L 637.14286,455.21933 820,266.6479 548.57143,335.21933 520,43.790754 348.57143,295.21933 z"
         style="fill:#ff0000;stroke:#000000;stroke-width:1px;stroke-linecap:butt;stroke-linejoin:miter;stroke-opacity:1" />
      <path
         id="path2839"
         d="M 251.42858,360.93361 285.71429,149.50504 362.85715,355.21933 420,280.93361 l 42.85715,68.57143 148.57143,-151.42857 -68.57143,205.71428 140,65.71429 -154.28572,74.28571 34.28572,165.71429 -137.14286,-131.42857 -117.14286,171.42857 0,-171.42857 -180,114.28571 88.57143,-188.57143 -245.714289,17.14286 280.000009,-160 z"
         style="fill:#ffff00;stroke:#000000;stroke-width:1px;stroke-linecap:butt;stroke-linejoin:miter;stroke-opacity:1" />
      <path
         id="path2841"
         d="M 300,340.93361 171.42857,295.21932 234.28571,400.93361 68.571429,423.79075 220,489.50504 l -42.85715,145.71428 111.42858,-94.28571 57.14285,148.57143 65.71429,-160 L 480,646.6479 485.71428,558.07647 657.14285,575.21932 560,466.6479 665.71428,346.6479 497.14285,415.21932 491.42857,240.93361 408.57143,372.36218 360,243.79075 300,340.93361 z"
         style="fill:#ff6600;stroke:#000000;stroke-width:1px;stroke-linecap:butt;stroke-linejoin:miter;stroke-opacity:1" />
    </g>
    <text
       xml:space="preserve"
       style="font-size:72px;font-style:normal;font-variant:normal;font-weight:normal;font-stretch:normal;fill:#000000;fill-opacity:1;stroke:none;font-family:Impact;-inkscape-font-specification:Impact"
       id="text2848"
       transform="matrix(1.3053071,-0.16676875,0.39271561,1.7538851,598.39871,-950.82734)"><textPath
         xlink:href="#path2852"
         id="textPath2854"><tspan
   id="tspan2850">Kaboom!</tspan></textPath></text>
    <path
       sodipodi:type="arc"
       style="fill:none;stroke:none;stroke-width:25;stroke-miterlimit:4;stroke-opacity:1;stroke-dasharray:none"
       id="path2852"
       sodipodi:cx="-407.14285"
       sodipodi:cy="832.36218"
       sodipodi:rx="121.42857"
       sodipodi:ry="65.714287"
       d="m -285.71428,832.36218 a 121.42857,65.714287 0 1 1 -242.85715,0 121.42857,65.714287 0 1 1 242.85715,0 z"
       transform="matrix(-1.2343323,-0.31518147,0.42020099,-0.92583945,-1222.309,1474.672)" />
  </g>
</svg>
